CddbId:8b0fb263:[150, 966, 3000, 5695, 8816, 11338, 14668, 17022, 19404, 23431, 26510, 29031, 31901, 34047, 35649, 39049, 41710, 43604, 46544, 48885, 53106, 55405, 57063, 60281, 62176, 65199, 69504, 73307, 76372, 80064, 82795, 87365, 90276, 94442, 98273, 102592, 106814, 109447, 113612, 117416, 120453, 123657, 127433, 129836, 132992, 135938, 138997, 141846, 145447, 148366, 151619, 154531, 157951, 160396, 162576, 165049, 168121, 170183, 172789, 175268, 177630, 180395, 183210, 186588, 189152, 192161, 196034, 199204, 202582, 205772, 210307, 213129, 216709, 220415, 224037, 227444, 230780, 234110, 237071, 241550, 244712, 248753, 252166, 256339, 259912, 263973, 268174, 272214, 275432, 279278, 282823, 284377, 286870, 289281, 290918, 293223, 295696, 298316, 300050]:301500:74:8b0fb263 99 150 966 3000 5695 8816 11338 14668 17022 19404 23431 26510 29031 31901 34047 35649 39049 41710 43604 46544 48885 53106 55405 57063 60281 62176 65199 69504 73307 76372 80064 82795 87365 90276 94442 98273 102592 106814 109447 113612 117416 120453 123657 127433 129836 132992 135938 138997 141846 145447 148366 151619 154531 157951 160396 162576 165049 168121 170183 172789 175268 177630 180395 183210 186588 189152 192161 196034 199204 202582 205772 210307 213129 216709 220415 224037 227444 230780 234110 237071 241550 244712 248753 252166 256339 259912 263973 268174 272214 275432 279278 282823 284377 286870 289281 290918 293223 295696 298316 300050 4020: 99 0 0 0 0 0 0 0 0 0 0 0 0 0 0 0 0 0 0 0 0 0 0 0 0 0 0 0 0 0 0 0 0 0 0 0 0 0 0 0 0 0 0 0 0 0 0 0 0 0 0 0 0 0 0 0 0 0 0 0 0 0 0 0 0 0 0 0 0 0 0 0 0 0 0 0 0 0 0 0 0 0 0 0 0 0 0 0 0 0 0 0 0 0 0 0 0 0 0 0 4020
num_tracks: 99
offsets: [150, 966, 3000, 5695, 8816, 11338, 14668, 17022, 19404, 23431, 26510, 29031, 31901, 34047, 35649, 39049, 41710, 43604, 46544, 48885, 53106, 55405, 57063, 60281, 62176, 65199, 69504, 73307, 76372, 80064, 82795, 87365, 90276, 94442, 98273, 102592, 106814, 109447, 113612, 117416, 120453, 123657, 127433, 129836, 132992, 135938, 138997, 141846, 145447, 148366, 151619, 154531, 157951, 160396, 162576, 165049, 168121, 170183, 172789, 175268, 177630, 180395, 183210, 186588, 189152, 192161, 196034, 199204, 202582, 205772, 210307, 213129, 216709, 220415, 224037, 227444, 230780, 234110, 237071, 241550, 244712, 248753, 252166, 256339, 259912, 263973, 268174, 272214, 275432, 279278, 282823, 284377, 286870, 289281, 290918, 293223, 295696, 298316, 300050]
extents: [0, 0, 0, 0, 0, 0, 0, 0, 0, 0, 0, 0, 0, 0, 0, 0, 0, 0, 0, 0, 0, 0, 0, 0, 0, 0, 0, 0, 0, 0, 0, 0, 0, 0, 0, 0, 0, 0, 0, 0, 0, 0, 0, 0, 0, 0, 0, 0, 0, 0, 0, 0, 0, 0, 0, 0, 0, 0, 0, 0, 0, 0, 0, 0, 0, 0, 0, 0, 0, 0, 0, 0, 0, 0, 0, 0, 0, 0, 0, 0, 0, 0, 0, 0, 0, 0, 0, 0, 0, 0, 0, 0, 0, 0, 0, 0, 0, 0, 0]
total_length: 4020
cddb: [2333061731, 99, 150, 966, 3000, 5695, 8816, 11338, 14668, 17022, 19404, 23431, 26510, 29031, 31901, 34047, 35649, 39049, 41710, 43604, 46544, 48885, 53106, 55405, 57063, 60281, 62176, 65199, 69504, 73307, 76372, 80064, 82795, 87365, 90276, 94442, 98273, 102592, 106814, 109447, 113612, 117416, 120453, 123657, 127433, 129836, 132992, 135938, 138997, 141846, 145447, 148366, 151619, 154531, 157951, 160396, 162576, 165049, 168121, 170183, 172789, 175268, 177630, 180395, 183210, 186588, 189152, 192161, 196034, 199204, 202582, 205772, 210307, 213129, 216709, 220415, 224037, 227444, 230780, 234110, 237071, 241550, 244712, 248753, 252166, 256339, 259912, 263973, 268174, 272214, 275432, 279278, 282823, 284377, 286870, 289281, 290918, 293223, 295696, 298316, 300050, 4020]
musicbrainz: ('99 150 966 3000 5695 8816 11338 14668 17022 19404 23431 26510 29031 31901 34047 35649 39049 41710 43604 46544 48885 53106 55405 57063 60281 62176 65199 69504 73307 76372 80064 82795 87365 90276 94442 98273 102592 106814 109447 113612 117416 120453 123657 127433 129836 132992 135938 138997 141846 145447 148366 151619 154531 157951 160396 162576 165049 168121 170183 172789 175268 177630 180395 183210 186588 189152 192161 196034 199204 202582 205772 210307 213129 216709 220415 224037 227444 230780 234110 237071 241550 244712 248753 252166 256339 259912 263973 268174 272214 275432 279278 282823 284377 286870 289281 290918 293223 295696 298316 300050 301500', 'eDziqANdYsSFJATpREt0pRpbKD0-')

CD record:
Device type    : Removable CD-ROM
Version        : 0
Response Format: 2
Capabilities   : 
Vendor_info    : 'FREECOM_'
Identification : 'DVD+/-RW16H4    '
Revision       : 'FR00'
Device seems to be: Generic mmc2 DVD-R/DVD-RW.
Using generic SCSI-3/mmc   CD-R/CD-RW driver (mmc_cdr).
Driver flags   : MMC-3 SWABAUDIO BURNFREE 
Supported modes: TAO PACKET SAO SAO/R96R RAW/R96R
first: 1 last 99
track:   1 lba:         0 (        0) 00:02:00 adr: 1 control: 0 mode: -1
track:   2 lba:       816 (     3264) 00:12:66 adr: 1 control: 0 mode: -1
track:   3 lba:      2850 (    11400) 00:40:00 adr: 1 control: 0 mode: -1
track:   4 lba:      5545 (    22180) 01:15:70 adr: 1 control: 0 mode: -1
track:   5 lba:      8666 (    34664) 01:57:41 adr: 1 control: 0 mode: -1
track:   6 lba:     11188 (    44752) 02:31:13 adr: 1 control: 0 mode: -1
track:   7 lba:     14518 (    58072) 03:15:43 adr: 1 control: 0 mode: -1
track:   8 lba:     16872 (    67488) 03:46:72 adr: 1 control: 0 mode: -1
track:   9 lba:     19254 (    77016) 04:18:54 adr: 1 control: 0 mode: -1
track:  10 lba:     23281 (    93124) 05:12:31 adr: 1 control: 0 mode: -1
track:  11 lba:     26360 (   105440) 05:53:35 adr: 1 control: 0 mode: -1
track:  12 lba:     28881 (   115524) 06:27:06 adr: 1 control: 0 mode: -1
track:  13 lba:     31751 (   127004) 07:05:26 adr: 1 control: 0 mode: -1
track:  14 lba:     33897 (   135588) 07:33:72 adr: 1 control: 0 mode: -1
track:  15 lba:     35499 (   141996) 07:55:24 adr: 1 control: 0 mode: -1
track:  16 lba:     38899 (   155596) 08:40:49 adr: 1 control: 0 mode: -1
track:  17 lba:     41560 (   166240) 09:16:10 adr: 1 control: 0 mode: -1
track:  18 lba:     43454 (   173816) 09:41:29 adr: 1 control: 0 mode: -1
track:  19 lba:     46394 (   185576) 10:20:44 adr: 1 control: 0 mode: -1
track:  20 lba:     48735 (   194940) 10:51:60 adr: 1 control: 0 mode: -1
track:  21 lba:     52956 (   211824) 11:48:06 adr: 1 control: 0 mode: -1
track:  22 lba:     55255 (   221020) 12:18:55 adr: 1 control: 0 mode: -1
track:  23 lba:     56913 (   227652) 12:40:63 adr: 1 control: 0 mode: -1
track:  24 lba:     60131 (   240524) 13:23:56 adr: 1 control: 0 mode: -1
track:  25 lba:     62026 (   248104) 13:49:01 adr: 1 control: 0 mode: -1
track:  26 lba:     65049 (   260196) 14:29:24 adr: 1 control: 0 mode: -1
track:  27 lba:     69354 (   277416) 15:26:54 adr: 1 control: 0 mode: -1
track:  28 lba:     73157 (   292628) 16:17:32 adr: 1 control: 0 mode: -1
track:  29 lba:     76222 (   304888) 16:58:22 adr: 1 control: 0 mode: -1
track:  30 lba:     79914 (   319656) 17:47:39 adr: 1 control: 0 mode: -1
track:  31 lba:     82645 (   330580) 18:23:70 adr: 1 control: 0 mode: -1
track:  32 lba:     87215 (   348860) 19:24:65 adr: 1 control: 0 mode: -1
track:  33 lba:     90126 (   360504) 20:03:51 adr: 1 control: 0 mode: -1
track:  34 lba:     94292 (   377168) 20:59:17 adr: 1 control: 0 mode: -1
track:  35 lba:     98123 (   392492) 21:50:23 adr: 1 control: 0 mode: -1
track:  36 lba:    102442 (   409768) 22:47:67 adr: 1 control: 0 mode: -1
track:  37 lba:    106664 (   426656) 23:44:14 adr: 1 control: 0 mode: -1
track:  38 lba:    109297 (   437188) 24:19:22 adr: 1 control: 0 mode: -1
track:  39 lba:    113462 (   453848) 25:14:62 adr: 1 control: 0 mode: -1
track:  40 lba:    117266 (   469064) 26:05:41 adr: 1 control: 0 mode: -1
track:  41 lba:    120303 (   481212) 26:46:03 adr: 1 control: 0 mode: -1
track:  42 lba:    123507 (   494028) 27:28:57 adr: 1 control: 0 mode: -1
track:  43 lba:    127283 (   509132) 28:19:08 adr: 1 control: 0 mode: -1
track:  44 lba:    129686 (   518744) 28:51:11 adr: 1 control: 0 mode: -1
track:  45 lba:    132842 (   531368) 29:33:17 adr: 1 control: 0 mode: -1
track:  46 lba:    135788 (   543152) 30:12:38 adr: 1 control: 0 mode: -1
track:  47 lba:    138847 (   555388) 30:53:22 adr: 1 control: 0 mode: -1
track:  48 lba:    141696 (   566784) 31:31:21 adr: 1 control: 0 mode: -1
track:  49 lba:    145297 (   581188) 32:19:22 adr: 1 control: 0 mode: -1
track:  50 lba:    148216 (   592864) 32:58:16 adr: 1 control: 0 mode: -1
track:  51 lba:    151469 (   605876) 33:41:44 adr: 1 control: 0 mode: -1
track:  52 lba:    154381 (   617524) 34:20:31 adr: 1 control: 0 mode: -1
track:  53 lba:    157801 (   631204) 35:06:01 adr: 1 control: 0 mode: -1
track:  54 lba:    160246 (   640984) 35:38:46 adr: 1 control: 0 mode: -1
track:  55 lba:    162426 (   649704) 36:07:51 adr: 1 control: 0 mode: -1
track:  56 lba:    164899 (   659596) 36:40:49 adr: 1 control: 0 mode: -1
track:  57 lba:    167971 (   671884) 37:21:46 adr: 1 control: 0 mode: -1
track:  58 lba:    170033 (   680132) 37:49:08 adr: 1 control: 0 mode: -1
track:  59 lba:    172639 (   690556) 38:23:64 adr: 1 control: 0 mode: -1
track:  60 lba:    175118 (   700472) 38:56:68 adr: 1 control: 0 mode: -1
track:  61 lba:    177480 (   709920) 39:28:30 adr: 1 control: 0 mode: -1
track:  62 lba:    180245 (   720980) 40:05:20 adr: 1 control: 0 mode: -1
track:  63 lba:    183060 (   732240) 40:42:60 adr: 1 control: 0 mode: -1
track:  64 lba:    186438 (   745752) 41:27:63 adr: 1 control: 0 mode: -1
track:  65 lba:    189002 (   756008) 42:02:02 adr: 1 control: 0 mode: -1
track:  66 lba:    192011 (   768044) 42:42:11 adr: 1 control: 0 mode: -1
track:  67 lba:    195884 (   783536) 43:33:59 adr: 1 control: 0 mode: -1
track:  68 lba:    199054 (   796216) 44:16:04 adr: 1 control: 0 mode: -1
track:  69 lba:    202432 (   809728) 45:01:07 adr: 1 control: 0 mode: -1
track:  70 lba:    205622 (   822488) 45:43:47 adr: 1 control: 0 mode: -1
track:  71 lba:    210157 (   840628) 46:44:07 adr: 1 control: 0 mode: -1
track:  72 lba:    212979 (   851916) 47:21:54 adr: 1 control: 0 mode: -1
track:  73 lba:    216559 (   866236) 48:09:34 adr: 1 control: 0 mode: -1
track:  74 lba:    220265 (   881060) 48:58:65 adr: 1 control: 0 mode: -1
track:  75 lba:    223887 (   895548) 49:47:12 adr: 1 control: 0 mode: -1
track:  76 lba:    227294 (   909176) 50:32:44 adr: 1 control: 0 mode: -1
track:  77 lba:    230630 (   922520) 51:17:05 adr: 1 control: 0 mode: -1
track:  78 lba:    233960 (   935840) 52:01:35 adr: 1 control: 0 mode: -1
track:  79 lba:    236921 (   947684) 52:40:71 adr: 1 control: 0 mode: -1
track:  80 lba:    241400 (   965600) 53:40:50 adr: 1 control: 0 mode: -1
track:  81 lba:    244562 (   978248) 54:22:62 adr: 1 control: 0 mode: -1
track:  82 lba:    248603 (   994412) 55:16:53 adr: 1 control: 0 mode: -1
track:  83 lba:    252016 (  1008064) 56:02:16 adr: 1 control: 0 mode: -1
track:  84 lba:    256189 (  1024756) 56:57:64 adr: 1 control: 0 mode: -1
track:  85 lba:    259762 (  1039048) 57:45:37 adr: 1 control: 0 mode: -1
track:  86 lba:    263823 (  1055292) 58:39:48 adr: 1 control: 0 mode: -1
track:  87 lba:    268024 (  1072096) 59:35:49 adr: 1 control: 0 mode: -1
track:  88 lba:    272064 (  1088256) 60:29:39 adr: 1 control: 0 mode: -1
track:  89 lba:    275282 (  1101128) 61:12:32 adr: 1 control: 0 mode: -1
track:  90 lba:    279128 (  1116512) 62:03:53 adr: 1 control: 0 mode: -1
track:  91 lba:    282673 (  1130692) 62:50:73 adr: 1 control: 0 mode: -1
track:  92 lba:    284227 (  1136908) 63:11:52 adr: 1 control: 0 mode: -1
track:  93 lba:    286720 (  1146880) 63:44:70 adr: 1 control: 0 mode: -1
track:  94 lba:    289131 (  1156524) 64:17:06 adr: 1 control: 0 mode: -1
track:  95 lba:    290768 (  1163072) 64:38:68 adr: 1 control: 0 mode: -1
track:  96 lba:    293073 (  1172292) 65:09:48 adr: 1 control: 0 mode: -1
track:  97 lba:    295546 (  1182184) 65:42:46 adr: 1 control: 0 mode: -1
track:  98 lba:    298166 (  1192664) 66:17:41 adr: 1 control: 0 mode: -1
track:  99 lba:    299900 (  1199600) 66:40:50 adr: 1 control: 0 mode: -1
track:lout lba:    301350 (  1205400) 67:00:00 adr: 1 control: 0 mode: -1
